<?xml version="1.0" encoding="UTF-8"?>
<svg id="Layer_1" data-name="Layer 1" xmlns="http://www.w3.org/2000/svg" viewBox="0 0 480 108">
  <defs>
    <style>
      .cls-1 {
        fill: #fff;
        stroke-width: 0px;
      }
    </style>
  </defs>
  <g>
    <path class="cls-1" d="M18.37,89.79V17.83h24.92c13.38,0,21.04,9.39,21.04,20.39s-7.88,20.39-21.04,20.39h-21.47v31.18h-3.45ZM43.19,21.06h-21.36v34.31h21.36c10.57,0,17.37-7.23,17.37-17.16s-6.8-17.15-17.37-17.15Z"/>
    <path class="cls-1" d="M68.34,89.79v-52.11h3.24v9.49c4.64-6.15,10.36-10.47,17.91-10.47v3.88c-.97-.11-1.62-.11-2.59-.11-5.5,0-12.95,5.39-15.32,10.25v39.06h-3.24Z"/>
    <path class="cls-1" d="M89.48,62.38c0-15.32,9.6-27.3,24.28-27.3s24.28,11.98,24.28,27.3-9.49,27.4-24.28,27.4-24.28-12.08-24.28-27.4ZM134.47,62.38c0-12.62-7.34-24.38-20.72-24.38s-20.72,11.76-20.72,24.38,7.44,24.49,20.72,24.49,20.72-11.76,20.72-24.49Z"/>
    <path class="cls-1" d="M184,89.79l-18.88-24.6-18.88,24.6h-4.21l21.25-26.76-20.07-25.35h4.21l17.69,23.09,17.69-23.09h4.21l-20.07,25.35,21.25,26.76h-4.21Z"/>
    <rect class="cls-1" x="192.57" y="37.68" width="3.24" height="52.11"/>
    <path class="cls-1" d="M262.59,89.79v-37.55c0-8.09-3.34-12.95-11.22-12.95-5.83,0-12.95,4.42-16.18,9.71v40.78h-3.24v-37.55c0-8.09-3.34-12.95-11.22-12.95-5.83,0-12.73,4.53-16.18,9.82v40.68h-3.24v-52.11h3.24v8.2c2.16-3.45,9.28-9.49,16.72-9.49,8.2,0,12.41,5.07,13.49,9.93,2.91-4.86,9.93-9.93,17.16-9.93,9.49,0,13.92,5.5,13.92,15.86v37.55h-3.24Z"/>
    <path class="cls-1" d="M306.08,88.49v-6.37c-4.85,5.29-10.68,7.66-18.02,7.66-9.17,0-18.23-6.26-18.23-17.37s8.96-17.37,18.23-17.37c7.34,0,13.16,2.37,18.02,7.66v-11.76c0-8.42-6.69-12.95-14.67-12.95-6.8,0-11.87,2.37-16.72,8.2l-2.48-2.16c5.07-5.93,10.47-8.96,19.2-8.96,10.25,0,17.91,5.18,17.91,15.75v37.65h-3.24ZM306.08,65.95c-3.99-5.29-10.36-7.98-17.15-7.98-9.49,0-15.54,6.37-15.54,14.46s6.04,14.46,15.54,14.46c6.8,0,13.16-2.7,17.15-7.98v-12.95Z"/>
    <path class="cls-1" d="M313.32,89.79V19.52h8.74v62.47h32.66v7.8h-41.4Z"/>
    <path class="cls-1" d="M358.71,89.79v-50.88h7.9v50.88h-7.9Z"/>
    <path class="cls-1" d="M405.06,89.79v-33.29c0-9.06-4.64-11.8-11.48-11.8-6.22,0-12.01,3.79-15.06,7.9v37.19h-7.9v-50.88h7.9v7.37c3.58-4.32,10.53-8.64,18.23-8.64,10.53,0,16.12,5.37,16.12,16.43v35.71h-7.8Z"/>
    <path class="cls-1" d="M451.51,89.79l-18.23-22.86-8.53,8.32v14.54h-7.9V19.52h7.9v46.46l26.76-27.07h10.01l-22.54,23.07,22.65,27.81h-10.11Z"/>
  </g>
  <rect class="cls-1" x="191.05" y="22.46" width="6.26" height="6.26"/>
  <rect class="cls-1" x="357.34" y="21" width="10.64" height="10.64" transform="translate(725.32 52.64) rotate(180)"/>
</svg>